<svg xmlns="http://www.w3.org/2000/svg" viewBox="0 0 300 320" width="100%" height="100%">
  <g fill="none" stroke="#232629" stroke-width="14" stroke-linecap="round" stroke-linejoin="round">
    <path d="M 125 170 C 95 170 70 140 75 98 C 80 50 120 32 158 42 C 196 52 215 92 198 132 C 182 170 135 182 112 152 C 92 122 105 75 142 68 C 172 62 188 88 182 112 C 176 136 155 152 132 152 C 112 152 102 136 112 118 C 122 100 145 98 165 118 C 182 135 198 158 222 158" />
  </g>
  <circle cx="242" cy="125" r="14" fill="#E31E24" />
  <text x="150" y="240" text-anchor="middle" fill="#E31E24" font-family="system-ui, -apple-system, BlinkMacSystemFont, 'Segoe UI', Roboto, sans-serif" font-size="46" font-weight="800" letter-spacing="-1">Quento</text>
  <text x="150" y="280" text-anchor="middle" fill="#232629" font-family="system-ui, -apple-system, BlinkMacSystemFont, 'Segoe UI', Roboto, sans-serif" font-size="24" font-weight="800" letter-spacing="9">CLUB</text>
</svg>
